PathFileType	4	(X/Y/Z)	Run_200 02
DataRate	CameraRate	NumFrames	NumMarkers	Units	OrigDataRate	OrigDataStartFrame	OrigNumFrames
100	100	5	42	mm	100	542	128
Frame#	Time	RASI			LPSI			RPSI			RTH1			RTH2			RTH3			LTH1			LTH2			LTH3			RTB1			RTB2			RTB3			LTB1			LTB2			LTB3			RCAL			RTOE			RMT5			LCAL			LTOE			LMT5			LACR			RACR			C7			RUA1			RUA2			RUA3			RLEL			RMEL			LUA2			LUA3			LLEL			LMEL			RFAsuperior			RFAradius			RFAulna			LFAsuperior			LFAradius			LFAulna			LUA1			CLAV			LASI		
		X1	Y1	Z1	X2	Y2	Z2	X3	Y3	Z3	X4	Y4	Z4	X5	Y5	Z5	X6	Y6	Z6	X7	Y7	Z7	X8	Y8	Z8	X9	Y9	Z9	X10	Y10	Z10	X11	Y11	Z11	X12	Y12	Z12	X13	Y13	Z13	X14	Y14	Z14	X15	Y15	Z15	X16	Y16	Z16	X17	Y17	Z17	X18	Y18	Z18	X19	Y19	Z19	X20	Y20	Z20	X21	Y21	Z21	X22	Y22	Z22	X23	Y23	Z23	X24	Y24	Z24	X25	Y25	Z25	X26	Y26	Z26	X27	Y27	Z27	X28	Y28	Z28	X29	Y29	Z29	X30	Y30	Z30	X31	Y31	Z31	X32	Y32	Z32	X33	Y33	Z33	X34	Y34	Z34	X35	Y35	Z35	X36	Y36	Z36	X37	Y37	Z37	X38	Y38	Z38	X39	Y39	Z39	X40	Y40	Z40	X41	Y41	Z41	X42	Y42	Z42	

542	  5.420000	1163.750295	999.573657	-205.624424	983.882204	1053.544789	-372.384716	991.298174	1046.955316	-290.742330	1153.827902	827.682073	-156.820658	1227.757536	748.123987	-166.309851	1214.785600	607.724783	-178.940406	1084.851997	858.428492	-524.099854	1148.796534	728.147630	-512.576156	1075.381958	610.603251	-487.823038	1183.007324	379.488585	-243.687382	1073.996098	348.884248	-202.793857	1042.636156	272.613247	-256.266891	1065.020518	326.157261	-399.497151	1006.014742	280.905600	-433.594198	994.711795	209.545418	-369.417823	883.749417	280.236536	-271.863135	1051.651816	116.294994	-242.450400	1019.069729	123.963069	-169.014391	831.386699	122.494627	-334.924970	1070.327803	 72.477142	-311.782694	1038.158011	 54.544277	-397.060000	1192.602485	1509.829674	-524.684087	1162.842865	1503.382203	-173.546481	1117.336573	1543.077277	-356.104381	1065.447841	1396.222296	-102.733077	996.973386	1406.088022	-120.020690	988.323224	1335.385793	-94.763137	933.530205	1275.204563	-78.483651	907.201817	1281.546626	-167.095698	1047.676850	1344.666634	-582.185635	1081.728879	1265.943707	-597.209142	1059.998248	1200.169066	-606.203659	1022.197561	1198.809429	-520.715371	1008.303889	1224.367585	-88.649298	1135.096136	1132.598429	-157.964352	1088.912774	1084.011399	-131.135947	1143.255592	1177.425445	-584.574839	1292.321341	1186.364284	-489.745409	1286.212900	1115.061331	-503.229305	1131.969362	1388.793170	-592.206983	1225.860434	1450.196383	-311.578696	1167.592432	989.079414	-463.353382	
543	  5.430000	1165.139058	1006.356480	-206.768734	986.799619	1059.944796	-375.066730	993.044994	1053.349024	-291.532601	1155.876158	835.518072	-156.268896	1230.636982	757.043104	-166.562200	1219.738903	616.848395	-180.203836	1083.263246	861.712871	-523.310212	1143.188407	729.871485	-510.331330	1064.898245	614.650562	-486.762533	1197.478242	384.412573	-245.535059	1090.187958	346.925689	-205.137736	1063.941282	268.747370	-259.147736	1047.860335	329.865985	-399.626339	988.231125	285.222113	-433.522282	977.063007	213.329562	-370.385875	904.729839	265.544193	-275.335616	1084.022120	114.140901	-245.389623	1050.450765	118.820706	-172.000376	813.831255	128.128183	-336.618926	1050.661167	 72.286264	-311.424675	1018.260974	 54.361480	-396.670071	1194.298441	1517.688126	-523.157427	1161.374429	1510.583784	-173.557428	1117.142809	1549.322992	-356.044590	1061.120083	1407.629801	-103.172127	993.699904	1418.502281	-123.616262	982.561727	1349.105995	-96.007768	925.933039	1290.294926	-80.214581	901.570423	1296.030551	-169.398285	1052.882283	1350.669506	-584.100771	1089.100496	1272.411806	-597.696135	1068.580342	1206.011821	-606.236002	1027.847361	1205.361171	-521.788992	1000.259983	1238.936062	-88.595936	1128.507760	1146.959023	-155.842330	1081.537413	1098.625539	-130.204244	1151.757622	1186.643154	-581.974168	1297.649830	1203.830260	-483.087848	1294.648142	1132.142803	-494.722951	1136.122405	1396.545086	-591.908397	1225.495690	1457.367646	-310.555933	1168.893414	995.978963	-464.539867	
544	  5.440000	1166.732180	1013.804550	-207.645192	991.977459	1065.945997	-378.704551	994.960845	1060.001807	-292.187250	1158.154715	843.776048	-155.964399	1233.447264	766.088901	-166.984525	1223.904600	626.031131	-181.816322	1082.268503	865.416579	-522.438654	1137.862229	732.230978	-508.036620	1054.692456	619.506708	-485.754578	1211.263024	389.027243	-248.223882	1106.508087	344.287739	-207.834887	1085.568972	264.728253	-262.634075	1031.158003	334.500868	-399.907612	970.920594	290.553172	-433.755254	959.963757	217.941646	-371.407275	926.691713	250.421771	-278.737374	1116.752307	112.535868	-250.024204	1082.824531	113.877046	-176.518337	797.029766	134.985602	-338.306384	1031.239697	 72.100623	-311.111197	998.443072	 54.315790	-396.423562	1195.720229	1526.133836	-521.453828	1160.533798	1518.018613	-173.486429	1116.938602	1555.971271	-355.762296	1057.885973	1419.064967	-103.534415	991.530450	1431.148593	-126.618551	977.895920	1363.131767	-97.132279	919.369419	1305.699543	-81.847239	897.007885	1311.027085	-171.660968	1058.258728	1357.383555	-585.950578	1095.945460	1279.800986	-598.566493	1076.782625	1212.740477	-606.931580	1033.503861	1212.355792	-523.898674	993.111105	1253.775947	-88.626264	1122.714325	1161.638755	-154.079684	1075.024956	1113.489041	-129.783467	1159.730955	1196.418045	-579.940029	1301.704274	1221.229639	-476.785432	1301.707788	1149.389295	-486.840201	1140.424894	1404.800710	-591.650205	1225.325019	1464.789179	-309.566753	1170.398742	1003.543776	-465.458531	
545	  5.450000	1168.452353	1021.407367	-208.222832	998.372224	1071.144706	-382.194577	997.046916	1066.772883	-292.743821	1160.563478	852.282243	-155.780357	1236.213822	775.004780	-167.559506	1227.240007	634.988256	-183.713871	1081.797511	869.416204	-521.604677	1132.787546	735.087464	-505.886451	1044.832507	625.092613	-484.839519	1224.279331	393.379356	-251.545895	1122.975567	341.013758	-210.844090	1107.377985	260.727176	-266.543291	1015.049903	339.979726	-400.384652	954.234666	296.818192	-434.310378	943.568067	223.284360	-372.478255	949.602306	235.016018	-282.014297	1149.763886	111.703367	-256.175835	1116.120857	109.413631	-182.417823	781.133940	142.954575	-339.887158	1012.143262	 71.925731	-311.008341	978.668677	 54.399150	-396.263741	1196.958325	1534.929946	-519.674051	1160.108486	1525.498919	-173.299588	1116.738690	1562.835333	-355.311815	1055.588675	1430.222336	-103.701375	990.283566	1443.869836	-128.819698	974.240337	1377.056792	-98.046798	913.825489	1321.032968	-83.276108	893.335213	1326.229803	-173.751553	1063.639767	1364.724668	-587.570932	1102.322769	1287.976009	-599.865367	1084.557032	1220.326015	-608.263965	1039.018102	1219.745121	-526.769701	986.902750	1268.635106	-88.794321	1117.676945	1176.334452	-152.612622	1069.384484	1128.246020	-129.816531	1167.162083	1206.750462	-578.546358	1304.610977	1238.128827	-471.000577	1307.526644	1166.330303	-479.891297	1144.959786	1413.347685	-591.435317	1225.297548	1472.167626	-308.806710	1172.031078	1011.263315	-466.078388	
546	  5.460000	1170.271798	1028.884993	-208.692203	1004.106989	1076.022064	-384.755770	999.287974	1073.528071	-293.235057	1162.979205	860.821436	-155.534776	1238.832195	783.565440	-168.305541	1229.662597	643.375089	-185.946086	1081.706859	873.579845	-520.912120	1127.994111	738.316038	-503.990248	1035.520593	631.212641	-484.022166	1236.398945	397.466858	-255.105641	1139.530018	337.172802	-214.112744	1129.191063	256.872432	-270.917837	999.719787	346.166274	-401.134875	938.346752	303.837271	-435.175158	928.029611	229.254137	-373.828869	973.403501	219.426344	-285.196710	1182.911408	111.852306	-263.606724	1150.198979	105.503995	-189.592224	766.266603	151.848172	-341.422760	993.392118	 71.790198	-311.264589	958.957731	 54.587542	-396.259265	1198.125759	1543.845847	-517.788404	1159.915955	1532.875260	-172.999317	1116.534500	1569.765030	-354.705803	1054.025807	1440.959629	-103.587149	989.732460	1456.467453	-130.167578	971.486017	1390.496730	-98.650539	909.253910	1335.913791	-84.400995	890.337660	1341.251617	-175.489992	1068.705817	1372.646549	-588.819914	1108.311820	1296.816765	-601.618194	1091.884447	1228.726908	-610.151022	1044.108443	1227.483858	-530.054909	981.677153	1283.224013	-89.050099	1113.406910	1190.764999	-151.419782	1064.637771	1142.609976	-130.200730	1173.991672	1217.693274	-577.845774	1306.611578	1254.189212	-465.900789	1312.297270	1182.589893	-474.036418	1149.555477	1422.147306	-591.222706	1225.289762	1479.315950	-308.399823	1173.762649	1018.857648	-466.589931	
